PathFileType	4	(X/Y/Z)	9_coords_data.trc
DataRate	CameraRate	NumFrames	NumMarkers	Units	OrigDataRate	OrigDataStartFrame	OrigNumFrames
30.0	30.0	8	21	m	30.0	20	59
Frame#	Time	THUMB_TIP	THUMB_IP	THUMB_MCP	THUMB_CMC	INDEX_TIP	INDEX_DIP	INDEX_PIP	INDEX_MCP	MIDDLE_TIP	MIDDLE_DIP	MIDDLE_PIP	MIDDLE_MCP	RING_TIP	RING_DIP	RING_PIP	RING_MCP	PINKY_TIP	PINKY_DIP	PINKY_PIP	PINKY_MCP	WRIST
X1	Y1	Z1	X2	Y2	Z2	X3	Y3	Z3	X4	Y4	Z4	X5	Y5	Z5	X6	Y6	Z6	X7	Y7	Z7	X8	Y8	Z8	X9	Y9	Z9	X10	Y10	Z10	X11	Y11	Z11	X12	Y12	Z12	X13	Y13	Z13	X14	Y14	Z14	X15	Y15	Z15	X16	Y16	Z16	X17	Y17	Z17	X18	Y18	Z18	X19	Y19	Z19	X20	Y20	Z20	X21	Y21	Z21
19	0.6333333333333333	-0.012390999794006348	-0.05062599945068359	1.0010700073242187	-0.035269500732421875	-0.04636790084838867	1.0050800170898437	-0.051934501647949216	-0.028102500915527344	1.0073499755859374	-0.056681098937988283	-0.000348565995693206	1.0161799926757813	-0.012862199783325196	-0.07607460021972656	0.9086729736328125	-0.019593000411987305	-0.0619275016784668	0.9240850219726563	-0.027354999542236327	-0.04532040023803711	0.937864990234375	-0.039324798583984376	-0.01455150032043457	0.9621690063476562	-0.021237600326538087	-0.03689939880371094	1.0006199951171875	-0.008296119689941405	-0.044542999267578126	0.985135009765625	0.0006499419808387751	-0.03853680038452149	0.9608930053710938	-0.01894849967956543	-0.001284350037574768	0.9632069702148438	-0.012705599784851074	-0.03060169982910156	1.0066199951171875	0.005401619911193848	-0.032859901428222656	0.9925449829101562	0.018462499618530272	-0.02092919921875	0.9743159790039062	-0.0045357999801635745	0.011022100448608399	0.9783369750976563	0.06256019973754882	-0.007701449871063233	0.9788380126953125	0.04743820190429687	0.0014116300344467162	0.98581298828125	0.03156959915161133	0.009414179801940918	0.99122802734375	0.003595190048217773	0.015773500442504883	0.9995659790039062	-0.06516359710693359	0.040160598754882815	1.03272998046875
20	0.6666666666666666	-0.012876500129699707	-0.05076139831542969	1.00077001953125	-0.035652999877929685	-0.04666439819335937	1.0049000244140625	-0.052591800689697266	-0.028156999588012696	1.007260009765625	-0.0570625	-0.00044937399029731706	1.01575	-0.01306350040435791	-0.0767761993408203	0.9089359741210937	-0.01984480094909668	-0.06252099990844727	0.9243179931640625	-0.027573699951171874	-0.045808601379394534	0.9379439697265625	-0.03979439926147461	-0.014984800338745117	0.9621209716796875	-0.021006000518798827	-0.0371531982421875	1.0007100219726563	-0.008706430435180663	-0.0448400993347168	0.9850139770507812	0.00025266399979591303	-0.03893840026855469	0.9606539916992187	-0.019465499877929688	-0.0016693600416183472	0.963073974609375	-0.013398099899291992	-0.030930200576782228	1.0065900268554688	0.004798850059509277	-0.03293719863891602	0.9928289794921875	0.018073200225830078	-0.02140340042114258	0.9739849853515625	-0.0049036297798156735	0.010505000114440917	0.9777470092773437	0.06190309906005859	-0.008858309745788575	0.978927978515625	0.046934600830078124	0.0004917939901351921	0.9855679931640625	0.031098400115966797	0.008711660385131836	0.9908699951171875	0.0032480599880218503	0.015414199829101562	0.9991380004882813	-0.06550859832763672	0.03965710067749023	1.0323399658203125
21	0.7	-0.012938199996948242	-0.05109749984741211	1.0002100219726562	-0.035830699920654296	-0.04716400146484375	1.004469970703125	-0.05271889877319336	-0.02880060005187988	1.0068900146484374	-0.05716799926757812	-0.000853911995887756	1.0159199829101562	-0.012970399856567384	-0.07751110076904297	0.9092949829101562	-0.01988279914855957	-0.06312400054931641	0.9243770141601563	-0.02782659912109375	-0.04629280090332031	0.937843994140625	-0.04018820190429687	-0.015357799530029297	0.9619719848632813	-0.02126059913635254	-0.037504798889160154	1.0001500244140624	-0.00881641960144043	-0.045369598388671876	0.9844749755859376	-5.6886699050664004e-05	-0.039338298797607425	0.9601790161132813	-0.019842199325561524	-0.0020706899166107167	0.96285498046875	-0.012624799728393555	-0.03125670051574707	1.0056699829101563	0.004843460083007812	-0.03347190093994141	0.9921900024414062	0.017740699768066408	-0.021776500701904296	0.9735289916992188	-0.005404230117797852	0.010278599739074707	0.9776409912109375	0.06114670181274414	-0.010942700386047364	0.9788590087890625	0.04641849899291992	-0.0010694099664688111	0.9855479736328125	0.03076169967651367	0.007589829921722412	0.9905430297851563	0.002725759983062744	0.015352999687194824	0.9988619995117187	-0.06509960174560547	0.039047401428222654	1.032550048828125
22	0.7333333333333333	-0.0121697998046875	-0.05144589996337891	0.9991649780273437	-0.03532720184326172	-0.0478306999206543	1.0038499755859376	-0.052220901489257815	-0.029384000778198242	1.006739990234375	-0.057090801239013673	-0.0018911399841308589	1.015989990234375	-0.012258600234985352	-0.07824649810791015	0.9095440063476562	-0.019478599548339845	-0.06364770126342774	0.9242249755859375	-0.027741500854492188	-0.04670050048828125	0.9373209838867187	-0.04047520065307617	-0.015874600410461424	0.9613410034179688	-0.021078399658203125	-0.03772930145263672	0.9996199951171875	-0.008302929878234864	-0.0457318000793457	0.9833200073242188	2.152689965441e-06	-0.039387100219726565	0.9589500122070312	-0.020158899307250976	-0.0024720299243927	0.9622670288085937	-0.013003600120544434	-0.03183300018310547	1.0053400268554689	0.004954730033874512	-0.03367739868164062	0.99127001953125	0.017716100692749023	-0.021929100036621095	0.97227197265625	-0.005751460075378418	0.0099933500289917	0.9768159790039063	0.06043519973754883	-0.013083600044250488	0.9788280029296875	0.04603620147705078	-0.0025277700424194333	0.9850960083007813	0.030546199798583983	0.006765120029449463	0.9898519897460938	0.0026391301155090333	0.015295399665832519	0.9979920043945313	-0.06497879791259766	0.03787139892578125	1.0320400390625
23	0.7666666666666667	-0.010773799896240234	-0.05170199966430664	0.9963330078125	-0.03365829849243164	-0.04881890106201172	1.0016599731445313	-0.051175498962402345	-0.03057939910888672	1.0050900268554688	-0.05595439910888672	-0.003406850099563598	1.0154099731445312	-0.010972800254821778	-0.07893350219726562	0.9096400146484375	-0.01872990036010742	-0.06392330169677735	0.9234530029296875	-0.027599000930786134	-0.04668560028076172	0.9359080200195312	-0.04074779891967773	-0.01605179977416992	0.9599459838867187	-0.019522600173950196	-0.038592800140380856	0.9968049926757813	-0.00727170991897583	-0.04585409927368164	0.9804660034179687	0.000248172000050544	-0.038811100006103515	0.9562579956054688	-0.020859699249267578	-0.002471790075302124	0.9607030029296875	-0.011551699638366698	-0.03248199844360351	1.0029600219726562	0.005567220211029053	-0.03351919937133789	0.9886729736328125	0.017872299194335937	-0.02125790023803711	0.9692880249023438	-0.006064579963684082	0.009765239715576171	0.9749879760742187	0.05955080032348633	-0.01560830020904541	0.977281005859375	0.045777698516845704	-0.004219560146331787	0.9834349975585938	0.030537500381469726	0.00586982011795044	0.9881950073242187	0.0026214299201965333	0.015418000221252441	0.9963369750976563	-0.06421330261230469	0.03594599914550781	1.0329000244140625
24	0.8	-0.00818589973449707	-0.05230300140380859	0.9920789794921875	-0.03097279930114746	-0.05017160034179687	0.9984929809570312	-0.04849779891967773	-0.03273419952392578	1.0036300048828124	-0.05364619827270508	-0.005667280197143554	1.0150499877929688	-0.010010000228881835	-0.0797645034790039	0.909406982421875	-0.01827899932861328	-0.06429799652099609	0.9221539916992187	-0.027746599197387697	-0.04673839950561524	0.9337620239257812	-0.04117940139770508	-0.01674449920654297	0.9581489868164063	-0.018218399047851563	-0.03904389953613281	0.993281982421875	-0.0056545500755310054	-0.04623849868774414	0.976416015625	0.000469561010599136	-0.03805530166625976	0.95206201171875	-0.021529600143432616	-0.002864700078964233	0.9583109741210938	-0.00948803997039795	-0.033222599029541014	0.9994240112304688	0.007263679981231689	-0.03355429840087891	0.984198974609375	0.018135499954223634	-0.020324100494384767	0.9645670166015625	-0.006516910076141357	0.009820770263671875	0.9724110107421875	0.058266300201416016	-0.018355400085449218	0.9742750244140626	0.04552750015258789	-0.005771440029144287	0.9800339965820313	0.03078230094909668	0.005312739849090576	0.9846430053710937	0.00298799991607666	0.01578059959411621	0.9936890258789063	-0.06329650115966796	0.033009899139404296	1.03318994140625
25	0.8333333333333334	-0.003586879968643188	-0.05389089965820312	0.9872579956054688	-0.025952199935913085	-0.05267190170288086	0.9955189819335938	-0.044868099212646485	-0.03583890151977539	1.0019500122070313	-0.049825000762939456	-0.009637630462646485	1.0148200073242188	-0.005810100078582764	-0.0809989013671875	0.9106740112304688	-0.01537880039215088	-0.06528579711914062	0.921864990234375	-0.026079200744628907	-0.047576698303222656	0.9321710205078125	-0.04086429977416992	-0.018531000137329102	0.9565120239257813	-0.014437600135803223	-0.04157099914550781	0.9895900268554687	-0.002181390047073364	-0.04686539840698242	0.9720139770507813	0.0018330899477005	-0.036986900329589845	0.9475759887695312	-0.022059600830078126	-0.003359740018844604	0.9565449829101562	-0.005239459991455078	-0.035929298400878905	0.9976649780273438	0.010172100067138671	-0.03406119918823242	0.9810360107421875	0.01879170036315918	-0.019286800384521484	0.960302001953125	-0.006994070053100586	0.009614939689636231	0.9699390258789062	0.05764630126953125	-0.018992900848388672	0.9713980102539063	0.0458317985534668	-0.005451930046081543	0.976593994140625	0.03160090065002442	0.006404029846191406	0.9810440063476562	0.0034122200012207033	0.016848800659179687	0.99081298828125	-0.061729801177978515	0.02827389907836914	1.034949951171875
26	0.8666666666666667	0.0033231499195098867	-0.057763900756835934	0.981676025390625	-0.018116600036621095	-0.055744701385498044	0.992198974609375	-0.03780379867553711	-0.04014260101318359	1.0005	-0.04491019821166992	-0.014430700302124023	1.0149400024414061	0.001897379994392395	-0.08053679656982422	0.912385009765625	-0.009612850189208984	-0.06508489990234376	0.9217269897460938	-0.022343299865722657	-0.04804399871826172	0.9304329833984375	-0.039375099182128906	-0.020979799270629883	0.9550770263671875	-0.0058372001647949215	-0.046413501739501956	0.9855449829101562	0.003503119945526123	-0.04714619827270508	0.966635009765625	0.004269810199737549	-0.03466550064086914	0.942594970703125	-0.022147899627685548	-0.004109439849853516	0.9553770141601563	0.003414750099182129	-0.039724201202392576	0.9940239868164062	0.01532409954071045	-0.033501800537109376	0.9764390258789063	0.02039150047302246	-0.016243400573730468	0.9557969970703125	-0.0072876100540161136	0.009512530326843262	0.9679509887695312	0.05667279815673828	-0.017324699401855468	0.9672369995117187	0.046036300659179685	-0.0028807299137115477	0.97177001953125	0.032264598846435545	0.00953419017791748	0.9762869873046875	0.0038685400485992433	0.018429000854492186	0.9877760009765625	-0.058508800506591796	0.021258600234985353	1.0352900390625
